# This file uses centimeters as units for non-parametric coordinates.

mtllib Castle_Che.mtl
g default
v -41.103077 0.000000 41.103077
v 41.103080 0.000000 41.103065
v -41.103065 0.000000 -41.103080
v 41.103065 0.000000 -41.103080
v -58.128518 0.000000 -0.000001
v 58.128518 0.000000 -0.000000
v 22.244814 0.000000 -53.703749
v 28.333735 0.000000 0.000000
v 22.244819 0.000000 53.703749
v -22.244819 0.000000 -53.703749
v -28.333735 0.000000 0.000000
v -22.244819 0.000000 53.703749
v 53.703749 0.000000 -22.244817
v 27.013192 0.000000 -27.013189
v -27.013192 0.000000 -27.013189
v -53.703749 0.000000 -22.244823
v -53.703749 0.000000 22.244823
v -27.013192 0.000000 27.013189
v 27.013192 0.000000 27.013189
v 53.703749 0.000000 22.244823
v -4.448520 0.000000 -53.703749
v 4.448518 0.000000 -53.703749
v 4.448519 0.000000 -27.013189
v -4.448519 0.000000 -27.013189
v 4.448519 0.000000 0.000000
v -4.448519 0.000000 0.000000
v 4.448519 0.000000 27.013189
v -4.448519 0.000000 27.013189
v 4.448519 0.000000 53.703749
v -4.448519 0.000000 53.703749
v 45.684230 0.000000 -34.246874
v 23.978429 0.000000 -44.000000
v 4.448518 0.000000 -43.999994
v -4.448520 0.000000 -44.000000
v -23.978433 0.000000 -44.000000
v -45.684230 0.000000 -34.246880
v -41.103065 1.000000 -41.103080
v -22.244823 1.000000 -53.703749
v 22.244817 1.000000 -53.703749
v 41.103065 1.000000 -41.103080
v -4.448520 1.000000 -53.703749
v 53.703749 1.000000 -22.244817
v 45.684230 1.000000 -34.246874
v -53.703749 1.000000 -22.244823
v -45.684230 1.000000 -34.246880
v 4.448518 1.000000 -53.703749
vt 0.375000 0.250000
vt 0.625000 0.250000
vt 0.375000 0.500000
vt 0.625000 0.500000
vt 0.375000 0.375000
vt 0.625000 0.375000
vt 0.562500 0.250000
vt 0.437500 0.500000
vt 0.625000 0.437500
vt 0.375000 0.437500
vt 0.375000 0.312500
vt 0.625000 0.312500
vt 0.512499 0.500000
vt 0.487501 0.250000
vt 0.562500 0.375000
vt 0.510292 0.312500
vt 0.562500 0.437500
vt 0.509813 0.375000
vt 0.562500 0.500000
vt 0.510292 0.437500
vt 0.512499 0.250000
vt 0.562500 0.312500
vt 0.487501 0.500000
vt 0.437500 0.437500
vt 0.489708 0.437500
vt 0.437500 0.375000
vt 0.490187 0.375000
vt 0.437500 0.312500
vt 0.437500 0.250000
vt 0.489708 0.312500
vt 0.625000 0.477277
vt 0.562500 0.477277
vt 0.511697 0.477277
vt 0.488303 0.477277
vt 0.437500 0.477277
vt 0.375000 0.477277
vt 0.000000 0.000000
vt 1.000000 0.000000
vt 1.000000 1.000000
vt 0.000000 1.000000
vt 0.000000 0.000000
vt 1.000000 0.000000
vt 1.000000 1.000000
vt 0.000000 1.000000
vt 0.000000 0.000000
vt 1.000000 0.000000
vt 1.000000 1.000000
vt 0.000000 1.000000
vt 0.000000 0.000000
vt 1.000000 0.000000
vt 1.000000 1.000000
vt 0.000000 1.000000
vt 0.000000 0.000000
vt 1.000000 0.000000
vt 1.000000 1.000000
vt 0.000000 1.000000
vt 0.000000 0.000000
vt 1.000000 0.000000
vt 1.000000 1.000000
vt 0.000000 1.000000
vt 0.000000 0.000000
vt 1.000000 0.000000
vt 1.000000 1.000000
vt 0.000000 1.000000
vt 0.000000 0.000000
vt 1.000000 0.000000
vt 1.000000 1.000000
vt 0.000000 1.000000
vn 0.000000 1.000000 0.000000
vn 0.000000 1.000000 0.000000
vn 0.000000 1.000000 0.000000
vn 0.000000 1.000000 0.000000
vn 0.000000 1.000000 0.000000
vn 0.000000 1.000000 0.000000
vn 0.000000 1.000000 0.000000
vn 0.000000 1.000000 0.000000
vn 0.000000 1.000000 0.000000
vn 0.000000 1.000000 0.000000
vn 0.000000 1.000000 0.000000
vn 0.000000 1.000000 0.000000
vn 0.000000 1.000000 0.000000
vn 0.000000 1.000000 0.000000
vn 0.000000 1.000000 0.000000
vn 0.000000 1.000000 0.000000
vn 0.000000 1.000000 0.000000
vn 0.000000 1.000000 0.000000
vn 0.000000 1.000000 0.000000
vn 0.000000 1.000000 0.000000
vn 0.000000 1.000000 0.000000
vn 0.000000 1.000000 0.000000
vn 0.000000 1.000000 0.000000
vn 0.000000 1.000000 0.000000
vn 0.000000 1.000000 0.000000
vn 0.000000 1.000000 0.000000
vn 0.000000 1.000000 0.000000
vn 0.000000 1.000000 0.000000
vn 0.000000 1.000000 0.000000
vn 0.000000 1.000000 0.000000
vn 0.000000 1.000000 0.000000
vn 0.000000 1.000000 0.000000
vn 0.000000 1.000000 0.000000
vn 0.000000 1.000000 0.000000
vn 0.000000 1.000000 0.000000
vn 0.000000 1.000000 0.000000
vn 0.555570 0.000002 0.831470
vn 0.555570 0.000002 0.831470
vn 0.555570 0.000002 0.831470
vn 0.555570 0.000002 0.831470
vn -0.555570 0.000002 0.831470
vn -0.555570 0.000002 0.831470
vn -0.555570 0.000002 0.831470
vn -0.555570 0.000002 0.831470
vn 0.000000 0.000000 1.000000
vn 0.000000 0.000000 1.000000
vn 0.000000 0.000000 1.000000
vn 0.000000 0.000000 1.000000
vn -0.831470 0.000000 0.555570
vn -0.831470 0.000000 0.555570
vn -0.831470 0.000000 0.555570
vn -0.831470 0.000000 0.555570
vn 0.831470 0.000000 0.555570
vn 0.831470 0.000000 0.555570
vn 0.831470 0.000000 0.555570
vn 0.831470 0.000000 0.555570
vn 0.000000 0.000000 1.000000
vn 0.000000 0.000000 1.000000
vn 0.000000 0.000000 1.000000
vn 0.000000 0.000000 1.000000
vn -0.831470 0.000000 0.555570
vn -0.831470 0.000000 0.555570
vn -0.831470 0.000000 0.555570
vn -0.831470 0.000000 0.555570
vn 0.831470 0.000000 0.555570
vn 0.831470 0.000000 0.555570
vn 0.831470 0.000000 0.555570
vn 0.831470 0.000000 0.555570
s 1
g pCube1
usemtl phong2SG
f 13/9/1 14/17/2 8/15/3 6/6/4
f 6/6/4 8/15/3 19/22/5 20/12/6
f 5/5/7 11/26/8 15/24/9 16/10/10
f 17/11/11 18/28/12 11/26/8 5/5/7
f 31/31/13 32/32/14 14/17/2 13/9/1
f 16/10/10 15/24/9 35/35/15 36/36/16
f 12/29/17 18/28/12 17/11/11 1/1/18
f 20/12/6 19/22/5 9/7/19 2/2/20
usemtl phong1SG
f 33/33/21 34/34/22 24/25/23 23/20/24
f 23/20/24 24/25/23 26/27/25 25/18/26
f 25/18/26 26/27/25 28/30/27 27/16/28
f 27/16/28 28/30/27 30/14/29 29/21/30
usemtl phong2SG
f 8/15/3 25/18/26 27/16/28 19/22/5
f 8/15/3 14/17/2 23/20/24 25/18/26
f 32/32/14 33/33/21 23/20/24 14/17/2
f 27/16/28 29/21/30 9/7/19 19/22/5
f 24/25/23 34/34/22 35/35/15 15/24/9
f 26/27/25 24/25/23 15/24/9 11/26/8
f 28/30/27 26/27/25 11/26/8 18/28/12
f 12/29/17 30/14/29 28/30/27 18/28/12
usemtl phong1SG
f 4/4/31 7/19/32 32/32/14 31/31/13
f 7/19/32 22/13/33 33/33/21 32/32/14
f 22/13/33 21/23/34 34/34/22 33/33/21
f 35/35/15 34/34/22 21/23/34 10/8/35
f 36/36/16 35/35/15 10/8/35 3/3/36
s off
f 3/37/37 10/38/38 38/39/39 37/40/40
f 7/41/41 4/42/42 40/43/43 39/44/44
f 10/45/45 21/46/46 41/47/47 38/48/48
usemtl phong2SG
f 31/49/49 13/50/50 42/51/51 43/52/52
f 16/53/53 36/54/54 45/55/55 44/56/56
usemtl phong1SG
f 22/57/57 7/58/58 39/59/59 46/60/60
f 4/61/61 31/62/62 43/63/63 40/64/64
f 36/65/65 3/66/66 37/67/67 45/68/68
g default
v -0.500000 -0.500000 0.500000
v 0.500000 -0.500000 0.500000
v -0.500000 0.500000 0.500000
v 0.500000 0.500000 0.500000
v -0.500000 0.500000 -0.500000
v 0.500000 0.500000 -0.500000
v -0.500000 -0.500000 -0.500000
v 0.500000 -0.500000 -0.500000
vt 0.375000 0.000000
vt 0.625000 0.000000
vt 0.375000 0.250000
vt 0.625000 0.250000
vt 0.375000 0.500000
vt 0.625000 0.500000
vt 0.375000 0.750000
vt 0.625000 0.750000
vt 0.375000 1.000000
vt 0.625000 1.000000
vt 0.875000 0.000000
vt 0.875000 0.250000
vt 0.125000 0.000000
vt 0.125000 0.250000
vn 0.000000 0.000000 1.000000
vn 0.000000 0.000000 1.000000
vn 0.000000 0.000000 1.000000
vn 0.000000 0.000000 1.000000
vn 0.000000 1.000000 0.000000
vn 0.000000 1.000000 0.000000
vn 0.000000 1.000000 0.000000
vn 0.000000 1.000000 0.000000
vn 0.000000 0.000000 -1.000000
vn 0.000000 0.000000 -1.000000
vn 0.000000 0.000000 -1.000000
vn 0.000000 0.000000 -1.000000
vn 0.000000 -1.000000 0.000000
vn 0.000000 -1.000000 0.000000
vn 0.000000 -1.000000 0.000000
vn 0.000000 -1.000000 0.000000
vn 1.000000 0.000000 0.000000
vn 1.000000 0.000000 0.000000
vn 1.000000 0.000000 0.000000
vn 1.000000 0.000000 0.000000
vn -1.000000 0.000000 0.000000
vn -1.000000 0.000000 0.000000
vn -1.000000 0.000000 0.000000
vn -1.000000 0.000000 0.000000
s off
g pCube2
usemtl initialShadingGroup
f 47/69/69 48/70/70 50/72/71 49/71/72
f 49/71/73 50/72/74 52/74/75 51/73/76
f 51/73/77 52/74/78 54/76/79 53/75/80
f 53/75/81 54/76/82 48/78/83 47/77/84
f 48/70/85 54/79/86 52/80/87 50/72/88
f 53/81/89 47/69/90 49/71/91 51/82/92
g default
v -41.103077 0.000000 41.103077
v 41.103080 0.000000 41.103065
v -41.103065 0.000000 -41.103080
v 41.103065 0.000000 -41.103080
v -58.128518 0.000000 -0.000001
v 58.128518 0.000000 -0.000000
v 22.244814 0.000000 -53.703749
v 28.333735 0.000000 0.000000
v 22.244819 0.000000 53.703749
v -22.244819 0.000000 -53.703749
v -28.333735 0.000000 0.000000
v -22.244819 0.000000 53.703749
v 53.703749 0.000000 -22.244817
v 27.013192 0.000000 -27.013189
v -27.013192 0.000000 -27.013189
v -53.703749 0.000000 -22.244823
v -53.703749 0.000000 22.244823
v -27.013192 0.000000 27.013189
v 27.013192 0.000000 27.013189
v 53.703749 0.000000 22.244823
v -4.448520 0.000000 -53.703749
v 4.448518 0.000000 -53.703749
v 4.448519 0.000000 -27.013189
v -4.448519 0.000000 -27.013189
v 4.448519 0.000000 0.000000
v -4.448519 0.000000 0.000000
v 4.448519 0.000000 27.013189
v -4.448519 0.000000 27.013189
v 4.448519 0.000000 53.703749
v -4.448519 0.000000 53.703749
v 45.684230 0.000000 -34.246874
v 23.978429 0.000000 -44.000000
v 4.448518 0.000000 -43.999994
v -4.448520 0.000000 -44.000000
v -23.978433 0.000000 -44.000000
v -45.684230 0.000000 -34.246880
v -41.103065 1.000000 -41.103080
v -22.244823 1.000000 -53.703749
v 22.244817 1.000000 -53.703749
v 41.103065 1.000000 -41.103080
v -4.448520 1.000000 -53.703749
v 53.703749 1.000000 -22.244817
v 45.684230 1.000000 -34.246874
v -53.703749 1.000000 -22.244823
v -45.684230 1.000000 -34.246880
v 4.448518 1.000000 -53.703749
vt 0.375000 0.250000
vt 0.625000 0.250000
vt 0.375000 0.500000
vt 0.625000 0.500000
vt 0.375000 0.375000
vt 0.625000 0.375000
vt 0.562500 0.250000
vt 0.437500 0.500000
vt 0.625000 0.437500
vt 0.375000 0.437500
vt 0.375000 0.312500
vt 0.625000 0.312500
vt 0.512499 0.500000
vt 0.487501 0.250000
vt 0.562500 0.375000
vt 0.510292 0.312500
vt 0.562500 0.437500
vt 0.509813 0.375000
vt 0.562500 0.500000
vt 0.510292 0.437500
vt 0.512499 0.250000
vt 0.562500 0.312500
vt 0.487501 0.500000
vt 0.437500 0.437500
vt 0.489708 0.437500
vt 0.437500 0.375000
vt 0.490187 0.375000
vt 0.437500 0.312500
vt 0.437500 0.250000
vt 0.489708 0.312500
vt 0.625000 0.477277
vt 0.562500 0.477277
vt 0.511697 0.477277
vt 0.488303 0.477277
vt 0.437500 0.477277
vt 0.375000 0.477277
vt 0.000000 0.000000
vt 1.000000 0.000000
vt 1.000000 1.000000
vt 0.000000 1.000000
vt 0.000000 0.000000
vt 1.000000 0.000000
vt 1.000000 1.000000
vt 0.000000 1.000000
vt 0.000000 0.000000
vt 1.000000 0.000000
vt 1.000000 1.000000
vt 0.000000 1.000000
vt 0.000000 0.000000
vt 1.000000 0.000000
vt 1.000000 1.000000
vt 0.000000 1.000000
vt 0.000000 0.000000
vt 1.000000 0.000000
vt 1.000000 1.000000
vt 0.000000 1.000000
vt 0.000000 0.000000
vt 1.000000 0.000000
vt 1.000000 1.000000
vt 0.000000 1.000000
vt 0.000000 0.000000
vt 1.000000 0.000000
vt 1.000000 1.000000
vt 0.000000 1.000000
vt 0.000000 0.000000
vt 1.000000 0.000000
vt 1.000000 1.000000
vt 0.000000 1.000000
vn 0.000000 1.000000 0.000000
vn 0.000000 1.000000 0.000000
vn 0.000000 1.000000 0.000000
vn 0.000000 1.000000 0.000000
vn 0.000000 1.000000 0.000000
vn 0.000000 1.000000 0.000000
vn 0.000000 1.000000 0.000000
vn 0.000000 1.000000 0.000000
vn 0.000000 1.000000 0.000000
vn 0.000000 1.000000 0.000000
vn 0.000000 1.000000 0.000000
vn 0.000000 1.000000 0.000000
vn 0.000000 1.000000 0.000000
vn 0.000000 1.000000 0.000000
vn 0.000000 1.000000 0.000000
vn 0.000000 1.000000 0.000000
vn 0.000000 1.000000 0.000000
vn 0.000000 1.000000 0.000000
vn 0.000000 1.000000 0.000000
vn 0.000000 1.000000 0.000000
vn 0.000000 1.000000 0.000000
vn 0.000000 1.000000 0.000000
vn 0.000000 1.000000 0.000000
vn 0.000000 1.000000 0.000000
vn 0.000000 1.000000 0.000000
vn 0.000000 1.000000 0.000000
vn 0.000000 1.000000 0.000000
vn 0.000000 1.000000 0.000000
vn 0.000000 1.000000 0.000000
vn 0.000000 1.000000 0.000000
vn 0.000000 1.000000 0.000000
vn 0.000000 1.000000 0.000000
vn 0.000000 1.000000 0.000000
vn 0.000000 1.000000 0.000000
vn 0.000000 1.000000 0.000000
vn 0.000000 1.000000 0.000000
vn 0.555570 0.000002 0.831470
vn 0.555570 0.000002 0.831470
vn 0.555570 0.000002 0.831470
vn 0.555570 0.000002 0.831470
vn -0.555570 0.000002 0.831470
vn -0.555570 0.000002 0.831470
vn -0.555570 0.000002 0.831470
vn -0.555570 0.000002 0.831470
vn 0.000000 0.000000 1.000000
vn 0.000000 0.000000 1.000000
vn 0.000000 0.000000 1.000000
vn 0.000000 0.000000 1.000000
vn -0.831470 0.000000 0.555570
vn -0.831470 0.000000 0.555570
vn -0.831470 0.000000 0.555570
vn -0.831470 0.000000 0.555570
vn 0.831470 0.000000 0.555570
vn 0.831470 0.000000 0.555570
vn 0.831470 0.000000 0.555570
vn 0.831470 0.000000 0.555570
vn 0.000000 0.000000 1.000000
vn 0.000000 0.000000 1.000000
vn 0.000000 0.000000 1.000000
vn 0.000000 0.000000 1.000000
vn -0.831470 0.000000 0.555570
vn -0.831470 0.000000 0.555570
vn -0.831470 0.000000 0.555570
vn -0.831470 0.000000 0.555570
vn 0.831470 0.000000 0.555570
vn 0.831470 0.000000 0.555570
vn 0.831470 0.000000 0.555570
vn 0.831470 0.000000 0.555570
s 1
g pCube1
f 67/91/93 68/99/94 62/97/95 60/88/96
f 60/88/96 62/97/95 73/104/97 74/94/98
f 59/87/99 65/108/100 69/106/101 70/92/102
f 71/93/103 72/110/104 65/108/100 59/87/99
f 85/113/105 86/114/106 68/99/94 67/91/93
f 70/92/102 69/106/101 89/117/107 90/118/108
f 66/111/109 72/110/104 71/93/103 55/83/110
f 74/94/98 73/104/97 63/89/111 56/84/112
f 87/115/113 88/116/114 78/107/115 77/102/116
f 77/102/116 78/107/115 80/109/117 79/100/118
f 79/100/118 80/109/117 82/112/119 81/98/120
f 81/98/120 82/112/119 84/96/121 83/103/122
f 62/97/95 79/100/118 81/98/120 73/104/97
f 62/97/95 68/99/94 77/102/116 79/100/118
f 86/114/106 87/115/113 77/102/116 68/99/94
f 81/98/120 83/103/122 63/89/111 73/104/97
f 78/107/115 88/116/114 89/117/107 69/106/101
f 80/109/117 78/107/115 69/106/101 65/108/100
f 82/112/119 80/109/117 65/108/100 72/110/104
f 66/111/109 84/96/121 82/112/119 72/110/104
f 58/86/123 61/101/124 86/114/106 85/113/105
f 61/101/124 76/95/125 87/115/113 86/114/106
f 76/95/125 75/105/126 88/116/114 87/115/113
f 89/117/107 88/116/114 75/105/126 64/90/127
f 90/118/108 89/117/107 64/90/127 57/85/128
s off
f 57/119/129 64/120/130 92/121/131 91/122/132
f 61/123/133 58/124/134 94/125/135 93/126/136
f 64/127/137 75/128/138 95/129/139 92/130/140
f 85/131/141 67/132/142 96/133/143 97/134/144
f 70/135/145 90/136/146 99/137/147 98/138/148
f 76/139/149 61/140/150 93/141/151 100/142/152
f 58/143/153 85/144/154 97/145/155 94/146/156
f 90/147/157 57/148/158 91/149/159 99/150/160
